<svg width="26" height="26" viewBox="0 0 26 26" fill="none" xmlns="http://www.w3.org/2000/svg">
<mask id="mask0_1_882" style="mask-type:alpha" maskUnits="userSpaceOnUse" x="0" y="0" width="26" height="26">
<rect x="0.0349731" y="0.5" width="25.0729" height="25" fill="white"/>
</mask>
<g mask="url(#mask0_1_882)">
<path fill-rule="evenodd" clip-rule="evenodd" d="M12.5714 3.625C9.55056 3.625 7.08673 6.08166 7.08673 9.09375C7.08673 10.9645 8.04165 12.6246 9.48628 13.6104C6.68272 14.8005 4.73615 17.5776 4.73615 20.8125H6.3032C6.3032 17.3243 9.07309 14.5625 12.5714 14.5625C16.0698 14.5625 18.8396 17.3243 18.8396 20.8125H20.4067C20.4067 17.5776 18.4601 14.8005 15.6566 13.6104C17.1012 12.6246 18.0561 10.9645 18.0561 9.09375C18.0561 6.08166 15.5923 3.625 12.5714 3.625ZM12.5714 5.1875C14.7445 5.1875 16.4891 6.927 16.4891 9.09375C16.4891 11.2605 14.7445 13 12.5714 13C10.3984 13 8.65379 11.2605 8.65379 9.09375C8.65379 6.927 10.3984 5.1875 12.5714 5.1875Z" fill="#1A4F8B"/>
</g>
</svg>
